<svg width="8" height="8" viewBox="0 0 8 8" fill="none" xmlns="http://www.w3.org/2000/svg">
<path d="M7.87213 2.03232L7.61008 1.76845C7.52761 1.68604 7.41788 1.64064 7.30061 1.64064C7.18341 1.64064 7.07355 1.68604 6.99108 1.76845L4.00179 4.75787L1.00905 1.76513C0.926707 1.68272 0.816852 1.63739 0.699648 1.63739C0.582444 1.63739 0.472524 1.68272 0.390117 1.76513L0.128001 2.02738C-0.042667 2.19792 -0.042667 2.47571 0.128001 2.64624L3.69122 6.22227C3.77356 6.30462 3.88328 6.36263 4.00153 6.36263H4.00289C4.12016 6.36263 4.22989 6.30455 4.31223 6.22227L7.87213 2.65594C7.9546 2.57359 7.99987 2.46055 8 2.34335C8 2.22608 7.9546 2.1146 7.87213 2.03232Z" fill="white"/>
</svg>
