<svg width="194" height="199" viewBox="0 0 194 199" fill="none" xmlns="http://www.w3.org/2000/svg">
<path d="M44.9771 198.604C36.6046 198.604 29.1292 196.442 22.7553 192.178C9.95892 183.614 2.49614 169.85 0.5756 151.268C-0.546506 140.392 0.192067 128.803 0.974594 116.535L0.990496 116.278C1.03961 115.501 1.13268 114.049 1.26786 112.206C1.27815 112.066 2.34086 97.691 4.5673 83.7902C6.50093 71.7062 8.90885 56.6646 12.4599 43.8706C15.2462 33.8263 18.5433 25.9594 22.5402 19.819C29.2822 9.46415 39.0228 2.80776 49.9693 1.07619C51.851 0.778236 53.7641 0.627625 55.6533 0.627625C67.4137 0.627625 78.1286 6.21898 85.8271 16.3689C89.6271 21.3793 92.245 26.7321 95.0187 32.3955C99.7695 42.1053 105.158 53.1136 116.172 61.6774C126.989 70.0888 141.545 74.6843 152.175 78.0408C159 80.1952 164.897 82.0559 170.384 84.7337C173.427 86.2187 177.979 88.6889 182.369 92.9944C189.381 99.8683 193.243 108.927 193.243 118.503C193.243 126.012 191.011 137.139 180.374 147.512C175.672 152.097 169.658 156.18 161.989 159.998C150.921 165.503 137.597 169.889 124.71 174.127C118.494 176.172 112.634 178.101 108.341 179.767C73.1444 193.438 58.5645 198.604 44.9771 198.604ZM55.6561 5.81438C54.0358 5.81438 52.3955 5.94395 50.7804 6.19793C41.304 7.6961 32.8178 13.5386 26.8873 22.6497C23.1833 28.3365 20.0986 35.7343 17.4572 45.257C13.9843 57.7713 11.6021 72.6548 9.68903 84.6116C7.49908 98.2953 6.45181 112.445 6.44152 112.588C6.30681 114.407 6.21607 115.841 6.16649 116.608L6.15106 116.864C5.38116 128.912 4.6557 140.291 5.73383 150.734C7.48832 167.709 14.1863 180.203 25.6403 187.867C31.1461 191.551 37.6519 193.417 44.9795 193.417C57.6777 193.417 71.9259 188.347 106.465 174.933C110.884 173.217 116.807 171.268 123.077 169.205C135.801 165.019 148.945 160.693 159.679 155.353C166.859 151.781 172.444 148 176.755 143.798C186.1 134.687 188.059 125.013 188.059 118.5C188.059 110.33 184.749 102.585 178.741 96.6933C174.889 92.9168 170.83 90.716 168.111 89.3891C162.971 86.8797 157.245 85.0732 150.617 82.9815C139.614 79.5081 124.541 74.7493 112.992 65.7678C101.032 56.4649 95.3634 44.8865 90.3656 34.6715C87.7065 29.2383 85.1948 24.1063 81.7007 19.4976C75.0027 10.6747 65.7546 5.81438 55.6561 5.81438Z" fill="#44408A"/>
<path d="M40.5239 183.046C33.8703 183.046 28.7406 182.499 24.2821 181.32C18.1753 179.702 13.222 176.773 9.55956 172.618C1.19265 163.118 -1.64044 150.654 0.897041 134.51C2.58698 123.766 6.47249 112.144 10.5886 99.8397L10.669 99.6012C10.9333 98.8107 11.4258 97.3303 12.084 95.4304C12.1335 95.2877 17.1229 80.8374 23.2063 67.1308C28.5512 55.0883 35.2024 40.0987 42.211 28.1237C47.271 19.4817 52.1051 13.134 56.9935 8.71716C66.011 0.570549 74.6735 -0.445845 80.3528 0.135087C81.6929 0.272135 83.0227 0.513488 84.308 0.855406C90.0055 2.36386 97.7583 6.50616 102.344 17.6674C104.448 22.7868 105.545 28.3103 106.817 34.7071C109.326 47.3384 112.452 63.0535 123.852 78.0249C134.627 92.1721 150.174 102.025 161.527 109.217C167.727 113.147 173.082 116.537 177.369 120.244C179.433 122.027 182.452 124.866 184.842 128.888C188.422 134.912 189.404 141.535 187.681 148.041C186.273 153.354 182.52 160.858 172.641 166.436C167.657 169.251 161.455 171.395 153.681 172.994C141.317 175.537 126.356 176.418 111.89 177.271C104.469 177.709 97.4678 178.121 92.0196 178.73C67.6209 181.46 51.8586 183.046 40.5239 183.046ZM25.6091 176.309C36.8096 179.277 53.4139 177.836 91.4415 173.577C97.0244 172.953 104.093 172.535 111.576 172.095C125.869 171.252 140.638 170.381 152.639 167.914C159.876 166.426 165.586 164.466 170.096 161.921C178.404 157.232 181.519 151.063 182.673 146.714C184.031 141.584 183.24 136.338 180.389 131.54C178.383 128.165 175.77 125.716 173.982 124.168C169.985 120.713 164.783 117.416 158.759 113.601C147.072 106.195 131.068 96.0576 119.731 81.169C107.603 65.2439 104.35 48.8754 101.735 35.7235C100.516 29.5905 99.4637 24.2975 97.5506 19.6426C93.7741 10.4511 87.5429 7.08148 82.981 5.87097C81.9572 5.59875 80.8945 5.40698 79.8238 5.29565C75.1922 4.81856 68.0719 5.69744 60.4692 12.5662C55.9827 16.6201 51.4727 22.5665 46.685 30.7439C39.8214 42.4678 33.2375 57.3096 27.9445 69.2356C21.9752 82.6854 17.0322 96.9805 16.9831 97.1231C16.3352 98.9997 15.8478 100.461 15.5836 101.247L15.5031 101.488C11.4595 113.58 7.63904 125.003 6.01645 135.316C3.73248 149.842 6.16378 160.923 13.4474 169.191C16.4208 172.564 20.5136 174.959 25.6091 176.309Z" fill="#FDBC62"/>
</svg>
