<svg width="111" height="26" viewBox="0 0 111 26" fill="none" xmlns="http://www.w3.org/2000/svg">
<path d="M5.786 0.605199V16.3348C5.786 16.7988 5.8672 17.2396 6.0296 17.6572C6.2152 18.0748 6.4588 18.446 6.7604 18.7708C5.902 18.5388 5.1016 18.1792 4.3592 17.692C3.6168 17.2048 2.9788 16.6248 2.4452 15.952C1.9116 15.256 1.494 14.4904 1.1924 13.6552C0.8908 12.82 0.74 11.9384 0.74 11.0104H0.7052V0.605199H5.786ZM0.7052 14.734C1.0764 15.5228 1.5404 16.242 2.0972 16.8916C2.6772 17.5412 3.3268 18.0864 4.046 18.5272C4.7652 18.968 5.5308 19.316 6.3428 19.5712C7.178 19.8032 8.0248 19.9192 8.8832 19.9192H9.1964H9.3356V25C8.1524 25 7.0272 24.7796 5.96 24.3388C4.916 23.8748 3.9996 23.2484 3.2108 22.4596C2.4452 21.6708 1.8304 20.7544 1.3664 19.7104C0.9256 18.6664 0.7052 17.5412 0.7052 16.3348V14.734ZM12.7357 8.644C13.4781 8.296 14.1625 7.8436 14.7889 7.2868C15.4153 6.73 15.9489 6.1036 16.3897 5.4076C16.8537 4.7116 17.2133 3.9576 17.4685 3.1456C17.7237 2.3336 17.8513 1.4868 17.8513 0.605199V16.9264C17.0857 17.2744 16.3897 17.7268 15.7633 18.2836C15.1369 18.8404 14.5917 19.4668 14.1277 20.1628C13.6869 20.8588 13.3389 21.6128 13.0837 22.4248C12.8517 23.2368 12.7357 24.0836 12.7357 24.9652V8.644ZM17.8513 17.866V24.9652H13.5709C13.5709 23.434 13.9653 22.042 14.7541 20.7892C15.5429 19.5132 16.5753 18.5388 17.8513 17.866ZM16.9813 0.605199C16.9813 2.1364 16.5869 3.54 15.7981 4.816C15.0325 6.0688 14.0117 7.0316 12.7357 7.7044V0.605199H16.9813ZM28.9226 21.868C28.2962 22.7032 27.5886 23.3528 26.7998 23.8168C26.011 24.2576 25.2454 24.594 24.503 24.826C23.7606 25.058 23.0994 25.1972 22.5194 25.2436C21.9394 25.29 21.545 25.3132 21.3362 25.3132H21.2318L21.3014 20.2324H21.4058C22.4498 20.2324 23.4474 20.07 24.3986 19.7452C25.3498 19.3972 26.1966 18.9216 26.939 18.3184C27.7046 17.7152 28.3542 17.0076 28.8878 16.1956C29.4446 15.3604 29.839 14.4672 30.071 13.516C30.0942 13.5624 30.1058 13.6204 30.1058 13.69C30.1058 13.7364 30.1174 13.7828 30.1406 13.8292C30.1406 13.8988 30.1638 13.98 30.2102 14.0728V14.1076C30.2102 14.154 30.2102 14.2004 30.2102 14.2468C30.2334 14.2932 30.245 14.3396 30.245 14.386C30.2682 14.4324 30.2798 14.4788 30.2798 14.5252C30.2798 14.5716 30.2914 14.618 30.3146 14.6644C30.3146 14.7108 30.3146 14.7572 30.3146 14.8036C30.3378 14.85 30.3494 14.8964 30.3494 14.9428C30.3726 15.0124 30.3842 15.1052 30.3842 15.2212C30.4074 15.2908 30.419 15.3836 30.419 15.4996C30.4422 15.5924 30.4538 15.6852 30.4538 15.778C30.4538 15.8476 30.4654 15.9288 30.4886 16.0216C30.4886 17.1584 30.4074 18.1908 30.245 19.1188C30.0826 20.0236 29.6418 20.94 28.9226 21.868ZM25.025 18.4924C25.1178 18.3764 25.1758 18.2488 25.199 18.1096C25.199 18.0864 25.199 18.0748 25.199 18.0748C25.2222 18.0516 25.2338 18.0284 25.2338 18.0052C25.2338 17.9124 25.257 17.8428 25.3034 17.7964V17.7268C25.3266 17.6804 25.3382 17.634 25.3382 17.5876C25.3382 17.5412 25.3498 17.4948 25.373 17.4484V17.344V17.2396V17.1352C25.3962 17.112 25.4078 17.0772 25.4078 17.0308V16.4392C25.3846 16.416 25.373 16.4044 25.373 16.4044V16.2304V16.1956V16.0564C25.3498 16.01 25.3382 15.9404 25.3382 15.8476C25.3382 15.778 25.3266 15.7316 25.3034 15.7084V15.5692C25.2802 15.546 25.257 15.4996 25.2338 15.43C25.2338 15.3604 25.2338 15.314 25.2338 15.2908C25.2338 15.2212 25.2222 15.1632 25.199 15.1168C25.199 15.0704 25.1874 15.024 25.1642 14.9776C25.1642 13.4232 25.5586 11.9964 26.3474 10.6972C27.1362 9.3748 28.2266 8.3656 29.6186 7.6696C29.5954 7.6928 29.5838 7.716 29.5838 7.7392C29.491 7.8552 29.433 7.9828 29.4098 8.122C29.4098 8.1452 29.3982 8.1684 29.375 8.1916C29.375 8.1916 29.375 8.2032 29.375 8.2264V8.2612C29.375 8.2844 29.3634 8.3076 29.3402 8.3308C29.3402 8.3772 29.3286 8.412 29.3054 8.4352V8.5048C29.3054 8.5512 29.2938 8.5976 29.2706 8.644C29.2706 8.6904 29.2706 8.7368 29.2706 8.7832V8.8876C29.2706 8.934 29.259 8.9572 29.2358 8.9572V9.0616V9.2008V9.6532V9.7924V9.8272C29.2358 9.8968 29.2474 9.9432 29.2706 9.9664V10.036V10.1752C29.2706 10.2216 29.2706 10.2564 29.2706 10.2796C29.2938 10.3028 29.3054 10.3376 29.3054 10.384V10.6624C29.3286 10.7088 29.3402 10.7436 29.3402 10.7668C29.3402 10.79 29.3518 10.8248 29.375 10.8712V10.9756C29.3982 11.022 29.4098 11.0684 29.4098 11.1148C29.4098 11.138 29.4214 11.1728 29.4446 11.2192C29.4446 11.2656 29.4562 11.3004 29.4794 11.3236C29.4794 12.9244 29.0618 14.3628 28.2266 15.6388C27.4146 16.8916 26.3474 17.8428 25.025 18.4924ZM33.3074 5.9992H33.203C32.159 5.9992 31.1614 6.1732 30.2102 6.5212C29.2822 6.846 28.4354 7.31 27.6698 7.9132C26.9042 8.5164 26.2546 9.2356 25.721 10.0708C25.1874 10.8828 24.8046 11.776 24.5726 12.7504C23.691 9.2936 24.0622 6.498 25.6862 4.3636C26.3358 3.5052 27.0782 2.844 27.9134 2.38C28.7486 1.8928 29.549 1.5448 30.3146 1.336C31.0802 1.104 31.753 0.976399 32.333 0.953199C32.913 0.9068 33.261 0.8836 33.377 0.8836L33.3074 5.9992ZM43.0606 6.8692C43.3158 5.9644 43.687 5.1292 44.1742 4.3636C44.6614 3.598 45.2414 2.9484 45.9142 2.4148C46.587 1.858 47.341 1.4288 48.1762 1.1272C49.0114 0.825599 49.9162 0.674798 50.8906 0.674798H54.0226V5.7904H51.3778C50.8906 5.7904 50.4266 5.8832 49.9858 6.0688C49.5682 6.2544 49.1854 6.5096 48.8374 6.8344C48.5126 7.136 48.2574 7.5072 48.0718 7.948C47.8862 8.3656 47.7934 8.818 47.7934 9.3052V25.0696H42.8518V8.4352C42.8982 7.9016 42.9678 7.3796 43.0606 6.8692ZM47.0974 0.674798C46.0302 1.1852 45.0906 1.8812 44.2786 2.7628C43.4898 3.6444 42.8982 4.6536 42.5038 5.7904H36.7966V0.674798H47.0974ZM57.4251 8.644C58.1675 8.296 58.8519 7.8436 59.4783 7.2868C60.1047 6.73 60.6383 6.1036 61.0791 5.4076C61.5431 4.7116 61.9027 3.9576 62.1579 3.1456C62.4131 2.3336 62.5407 1.4868 62.5407 0.605199V16.9264C61.7751 17.2744 61.0791 17.7268 60.4527 18.2836C59.8263 18.8404 59.2811 19.4668 58.8171 20.1628C58.3763 20.8588 58.0283 21.6128 57.7731 22.4248C57.5411 23.2368 57.4251 24.0836 57.4251 24.9652V8.644ZM62.5407 17.866V24.9652H58.2603C58.2603 23.434 58.6547 22.042 59.4435 20.7892C60.2323 19.5132 61.2647 18.5388 62.5407 17.866ZM61.6707 0.605199C61.6707 2.1364 61.2763 3.54 60.4875 4.816C59.7219 6.0688 58.7011 7.0316 57.4251 7.7044V0.605199H61.6707ZM72.3592 19.258C72.9856 19.7684 73.7164 20.0236 74.5516 20.0236C75.0388 20.0236 75.4912 19.9308 75.9088 19.7452C76.3496 19.5596 76.7208 19.316 77.0224 19.0144C77.3472 18.6896 77.6024 18.3068 77.788 17.866C77.9736 17.4252 78.0664 16.9612 78.0664 16.474V0.7444H83.182V16.474C83.182 17.3324 83.0544 18.1676 82.7992 18.9796C82.5672 19.7916 82.2308 20.534 81.79 21.2068C81.3492 21.8796 80.8156 22.4828 80.1892 23.0164C79.5628 23.55 78.8784 23.9908 78.136 24.3388C76.7904 24.0372 75.6072 23.434 74.5864 22.5292C73.5656 21.6244 72.8232 20.534 72.3592 19.258ZM65.9212 16.474V0.7444H71.002V16.5784C71.002 17.5296 71.1528 18.4344 71.4544 19.2928C71.756 20.1512 72.162 20.94 72.6724 21.6592C73.1828 22.3784 73.786 23.0048 74.482 23.5384C75.2012 24.072 75.9784 24.5012 76.8136 24.826C76.0248 25.0116 75.2708 25.1044 74.5516 25.1044C73.3684 25.1044 72.2432 24.884 71.176 24.4432C70.132 23.9792 69.2156 23.3644 68.4268 22.5988C67.6612 21.81 67.0464 20.8936 66.5824 19.8496C66.1416 18.7824 65.9212 17.6572 65.9212 16.474ZM95.3533 0.8488C94.3093 1.5912 93.4625 2.5424 92.8129 3.7024C92.1633 4.8392 91.7921 6.092 91.6993 7.4608V7.8436V17.9008H91.6645V24.9304H86.5837V8.0176C86.5837 6.9968 86.7693 6.0456 87.1405 5.164C87.5349 4.2824 88.0685 3.5052 88.7413 2.8324C89.4141 2.1596 90.1913 1.6376 91.0729 1.2664C91.9777 0.871999 92.9289 0.674798 93.9265 0.674798C94.3673 0.674798 94.8429 0.732799 95.3533 0.8488ZM105.028 0.779199C103.984 1.5216 103.137 2.4612 102.487 3.598C101.838 4.7348 101.455 5.9876 101.339 7.3564C101.269 7.5652 101.235 7.7624 101.235 7.948V24.9304H96.1537V8.0176C96.1537 7.3912 95.9333 6.8692 95.4925 6.4516C95.0517 6.0108 94.5297 5.7904 93.9265 5.7904C93.4857 5.7904 93.1029 5.8948 92.7781 6.1036C93.0333 5.0596 93.4741 4.1084 94.1005 3.25C94.7501 2.3916 95.5273 1.684 96.4321 1.1272C97.2673 1.4288 98.0097 1.858 98.6593 2.4148C99.3089 1.858 100.04 1.4288 100.852 1.1272C101.687 0.802399 102.569 0.639999 103.497 0.639999C104.077 0.639999 104.587 0.686399 105.028 0.779199ZM110.839 7.948V17.9008H110.805V24.9304H105.724V7.948C105.724 7.3448 105.503 6.8228 105.063 6.382C104.645 5.9412 104.123 5.7208 103.497 5.7208C103.102 5.7208 102.743 5.8136 102.418 5.9992C102.673 4.9552 103.125 4.0156 103.775 3.1804C104.425 2.322 105.202 1.626 106.107 1.0924C107.499 1.626 108.635 2.5076 109.517 3.7372C110.399 4.9668 110.839 6.3704 110.839 7.948Z" fill="white"/>
</svg>
