<svg width="261" height="283" viewBox="0 0 261 283" fill="none" xmlns="http://www.w3.org/2000/svg">
<path d="M260.5 283C252.098 281.674 243.632 246.999 235.726 238.963C206.314 209.087 240.37 175.56 210.958 145.684C181.546 115.817 147.49 149.345 118.078 119.477C88.6664 89.6101 122.722 56.0742 93.3108 26.2065C63.8992 -3.66044 29.4037 29.867 0 0L0 282.633L260.5 283Z" fill="#44408A"/>
<path d="M0 59.7188C23.2544 83.3388 50.942 56.7652 74.1965 80.386C97.4588 104.007 70.5196 130.531 93.7826 154.152C117.045 177.772 143.976 151.256 167.239 174.876C190.502 198.497 163.57 225.021 186.825 248.642C210.08 272.262 237.019 259.371 260.281 283H0L0 59.7188Z" fill="white"/>
</svg>
